<?xml version="1.0" encoding="utf-8"?>
<!-- Generator: Adobe Illustrator 27.0.0, SVG Export Plug-In . SVG Version: 6.00 Build 0)  -->
<svg version="1.1" id="Layer_1" xmlns="http://www.w3.org/2000/svg" xmlns:xlink="http://www.w3.org/1999/xlink" x="0px" y="0px"
	 viewBox="0 0 792 612" style="enable-background:new 0 0 792 612;" xml:space="preserve">
<style type="text/css">
	.st0{fill:#A7A9AC;}
	.st1{fill:#CCCCCC;}
</style>
<g>
	<path class="st0" d="M401.6,262.24l12.8,27.44h-2.96l-4.32-9.03h-11.82l-4.27,9.03h-3.06l12.97-27.44H401.6z M401.25,268.07
		l-4.7,9.93h9.38L401.25,268.07z"/>
	<path class="st0" d="M418.8,262.24h5.47c3.05,0,5.11,0.13,6.19,0.37c1.63,0.37,2.95,1.17,3.97,2.4c1.02,1.23,1.53,2.74,1.53,4.53
		c0,1.49-0.35,2.81-1.05,3.94c-0.7,1.13-1.71,1.99-3.01,2.57c-1.31,0.58-3.11,0.87-5.41,0.89l9.87,12.74h-3.39l-9.87-12.74h-1.55
		v12.74h-2.74V262.24z M421.54,264.93v9.33l4.73,0.04c1.83,0,3.18-0.17,4.06-0.52c0.88-0.35,1.56-0.9,2.06-1.67
		c0.49-0.76,0.74-1.62,0.74-2.56c0-0.92-0.25-1.76-0.75-2.51c-0.5-0.75-1.15-1.29-1.96-1.61c-0.81-0.32-2.16-0.48-4.04-0.48H421.54z
		"/>
	<path class="st0" d="M464.83,286.7l4.07,5.15h-3.38l-2.79-3.55c-2.24,1.38-4.77,2.07-7.57,2.07c-4.06,0-7.49-1.39-10.29-4.18
		c-2.8-2.79-4.19-6.16-4.19-10.11c0-2.64,0.64-5.08,1.92-7.34s3.02-4.02,5.23-5.29c2.21-1.27,4.63-1.9,7.26-1.9
		c4.06,0,7.49,1.39,10.28,4.17c2.79,2.78,4.18,6.2,4.18,10.25c0,2.11-0.38,4.05-1.15,5.8C467.64,283.53,466.45,285.17,464.83,286.7z
		 M463.13,284.56c2.39-2.33,3.59-5.2,3.59-8.61c0-2.18-0.51-4.15-1.52-5.91c-1.01-1.76-2.44-3.17-4.28-4.23
		c-1.84-1.06-3.78-1.59-5.82-1.59c-2.05,0-3.99,0.53-5.8,1.58c-1.82,1.05-3.23,2.48-4.25,4.27c-1.02,1.8-1.53,3.8-1.53,6
		c0,3.26,1.13,6.01,3.38,8.26c2.25,2.25,4.97,3.37,8.15,3.37c2.18,0,4.17-0.53,5.97-1.59l-6.11-7.76h3.33L463.13,284.56z"/>
	<path class="st0" d="M475.21,262.24h2.74v16.57c0,1.97,0.04,3.19,0.11,3.67c0.14,1.08,0.45,1.99,0.95,2.71
		c0.5,0.73,1.26,1.34,2.29,1.83c1.03,0.49,2.07,0.74,3.12,0.74c0.91,0,1.78-0.19,2.61-0.58c0.83-0.38,1.53-0.92,2.09-1.6
		c0.56-0.68,0.97-1.51,1.23-2.48c0.19-0.7,0.28-2.13,0.28-4.29v-16.57h2.74v16.57c0,2.45-0.24,4.43-0.72,5.94s-1.44,2.83-2.87,3.95
		c-1.44,1.12-3.18,1.68-5.21,1.68c-2.21,0-4.11-0.53-5.69-1.59c-1.58-1.06-2.64-2.45-3.17-4.2c-0.34-1.07-0.5-3-0.5-5.78V262.24z"/>
	<path class="st0" d="M499.74,262.24h2.74v27.44h-2.74V262.24z"/>
	<path class="st0" d="M506.04,264.93v-2.69h15.04v2.69h-6.12v24.75h-2.8v-24.75H506.04z"/>
	<path class="st0" d="M525.05,262.24h15.73v2.69h-12.98v8.6h12.87v2.69h-12.87V287h12.87v2.69h-15.61V262.24z"/>
	<path class="st0" d="M571.07,267.34l-2.16,1.66c-1.19-1.55-2.63-2.73-4.3-3.53c-1.67-0.8-3.51-1.2-5.51-1.2
		c-2.19,0-4.22,0.52-6.08,1.58s-3.31,2.46-4.34,4.23s-1.54,3.77-1.54,5.98c0,3.35,1.15,6.14,3.44,8.38
		c2.29,2.24,5.19,3.36,8.68,3.36c3.84,0,7.06-1.5,9.65-4.51l2.16,1.64c-1.37,1.74-3.08,3.09-5.12,4.04
		c-2.05,0.95-4.33,1.43-6.86,1.43c-4.8,0-8.59-1.6-11.36-4.79c-2.32-2.7-3.49-5.96-3.49-9.78c0-4.02,1.41-7.4,4.22-10.14
		c2.82-2.74,6.35-4.11,10.59-4.11c2.56,0,4.88,0.51,6.94,1.52C568.06,264.09,569.75,265.51,571.07,267.34z"/>
	<path class="st0" d="M573.85,264.93v-2.69h15.04v2.69h-6.12v24.75h-2.8v-24.75H573.85z"/>
	<path class="st0" d="M387.85,342.63l3.73-2.24c2.63,4.84,5.66,7.25,9.1,7.25c1.47,0,2.86-0.34,4.15-1.03
		c1.29-0.69,2.28-1.61,2.95-2.76s1.02-2.38,1.02-3.67c0-1.47-0.5-2.91-1.49-4.33c-1.37-1.95-3.88-4.3-7.52-7.04
		c-3.66-2.77-5.94-4.77-6.84-6c-1.55-2.07-2.33-4.31-2.33-6.72c0-1.91,0.46-3.65,1.37-5.22c0.91-1.57,2.2-2.81,3.86-3.72
		c1.66-0.91,3.47-1.36,5.42-1.36c2.07,0,4,0.51,5.81,1.54c1.8,1.03,3.71,2.91,5.72,5.66l-3.58,2.72c-1.65-2.19-3.06-3.63-4.22-4.33
		c-1.16-0.7-2.43-1.04-3.8-1.04c-1.77,0-3.22,0.54-4.34,1.61s-1.69,2.4-1.69,3.97c0,0.95,0.2,1.88,0.6,2.78
		c0.4,0.89,1.12,1.87,2.18,2.92c0.58,0.56,2.47,2.02,5.67,4.39c3.8,2.81,6.41,5.3,7.82,7.49c1.41,2.19,2.12,4.39,2.12,6.6
		c0,3.18-1.21,5.95-3.63,8.3c-2.42,2.35-5.36,3.52-8.82,3.52c-2.67,0-5.08-0.71-7.25-2.14
		C391.68,348.36,389.68,345.98,387.85,342.63z"/>
	<path class="st0" d="M418.47,311.21v-4.3h24.06v4.3h-9.79v39.61h-4.48v-39.61H418.47z"/>
	<path class="st0" d="M449.01,306.91h4.39v26.5c0,3.14,0.06,5.1,0.18,5.88c0.22,1.73,0.73,3.18,1.52,4.34
		c0.8,1.16,2.02,2.14,3.67,2.92c1.65,0.79,3.31,1.18,4.99,1.18c1.45,0,2.85-0.31,4.18-0.93s2.45-1.47,3.34-2.57
		c0.9-1.09,1.55-2.42,1.97-3.97c0.3-1.11,0.45-3.4,0.45-6.87v-26.5h4.39v26.5c0,3.92-0.38,7.09-1.15,9.51
		c-0.77,2.42-2.3,4.52-4.6,6.31c-2.3,1.79-5.08,2.69-8.34,2.69c-3.54,0-6.58-0.85-9.1-2.54c-2.53-1.69-4.22-3.93-5.07-6.72
		c-0.54-1.71-0.81-4.79-0.81-9.25V306.91z"/>
	<path class="st0" d="M488.88,350.81v-43.91h9.1c6.57,0,11.33,0.53,14.3,1.58c4.26,1.49,7.59,4.08,9.98,7.76s3.6,8.07,3.6,13.16
		c0,4.4-0.95,8.27-2.85,11.61c-1.9,3.34-4.37,5.81-7.4,7.4c-3.03,1.59-7.29,2.39-12.76,2.39H488.88z M493.09,346.66h5.07
		c6.07,0,10.28-0.38,12.63-1.13c3.3-1.07,5.9-3.01,7.79-5.8c1.89-2.79,2.84-6.21,2.84-10.24c0-4.23-1.03-7.85-3.07-10.85
		c-2.05-3-4.91-5.06-8.57-6.17c-2.75-0.83-7.27-1.25-13.58-1.25h-3.1V346.66z"/>
	<path class="st0" d="M533.74,306.91h4.39v43.91h-4.39V306.91z"/>
	<path class="st0" d="M569.1,305.8c6.65,0,12.21,2.22,16.69,6.66s6.72,9.9,6.72,16.39c0,6.43-2.23,11.88-6.7,16.36
		c-4.47,4.48-9.92,6.72-16.35,6.72c-6.51,0-12.01-2.23-16.49-6.69c-4.48-4.46-6.72-9.85-6.72-16.18c0-4.22,1.02-8.13,3.06-11.73
		c2.04-3.6,4.82-6.42,8.35-8.46C561.18,306.82,565,305.8,569.1,305.8z M569.29,310.07c-3.25,0-6.33,0.85-9.24,2.54
		s-5.18,3.97-6.82,6.84c-1.63,2.87-2.45,6.06-2.45,9.59c0,5.22,1.81,9.62,5.43,13.22c3.62,3.59,7.98,5.39,13.08,5.39
		c3.41,0,6.56-0.83,9.46-2.48c2.9-1.65,5.16-3.91,6.79-6.78c1.62-2.87,2.44-6.05,2.44-9.56c0-3.49-0.81-6.64-2.44-9.45
		s-3.91-5.07-6.86-6.77S572.6,310.07,569.29,310.07z"/>
</g>
<path class="st1" d="M306.29,238.23c0,3.65,0.76,7.18,2.28,10.61c1.52,3.42,4.29,7.15,8.33,11.18c2.2,2.13,9.42,7.72,21.67,16.77
	c14.53,10.73,24.49,20.27,29.88,28.63c3.78,5.86,6.21,11.73,7.34,17.62c0.48-3.85,0.76-7.76,0.76-11.73
	c0-41.13-26.6-76.02-63.52-88.48c-0.1,0.09-0.21,0.14-0.3,0.23C308.44,227.17,306.29,232.23,306.29,238.23z"/>
<path class="st1" d="M311.77,372.75l10.83,23.22c14.75-6.88,27.4-17.5,36.74-30.64c-8.56,6.97-18.67,10.47-30.34,10.47
	C322.9,375.8,317.18,374.7,311.77,372.75z"/>
<path class="st1" d="M251.85,244.28l40.97,87.85c9.99,18.22,21.51,27.36,34.58,27.36c5.62,0,10.91-1.31,15.85-3.94
	c4.94-2.62,8.71-6.14,11.29-10.55c2.58-4.41,3.88-9.08,3.88-14.03c0-5.62-1.9-11.14-5.7-16.54c-5.25-7.45-14.83-16.42-28.74-26.92
	c-13.99-10.57-22.7-18.21-26.12-22.93c-5.93-7.91-8.9-16.46-8.9-25.67c0-7.3,1.74-13.95,5.25-19.96c0.07-0.12,0.16-0.22,0.23-0.34
	c-3.69-0.44-7.45-0.7-11.26-0.7c-51.58,0-93.39,41.81-93.39,93.39c0,13.64,2.95,26.59,8.21,38.28l49.75-105.31H251.85z
	 M304.95,324.55h17.48v-17.36h5.48v17.36h17.48v5.48h-17.48v17.35h-5.48v-17.35h-17.48V324.55z"/>
<polygon class="st1" points="220.98,340.67 278.35,340.67 249.74,279.93 "/>
<path class="st1" d="M213.31,356.86l-4.92,10.39c17.03,22.73,44.19,37.44,74.78,37.44c8.23,0,16.21-1.08,23.82-3.08l-21.39-44.76
	H213.31z"/>
</svg>
